<?xml version="1.0" encoding="utf-8"?>
<svg width="657px" height="665px" viewBox="0 0 657 665" version="1.1" xmlns:xlink="http://www.w3.org/1999/xlink" xmlns="http://www.w3.org/2000/svg">
  <desc>Created with Lunacy</desc>
  <defs>
    <linearGradient x1="0.15791" y1="0.14737" x2="0.91009" y2="0.85227996" id="gradient_1">
      <stop offset="0" stop-color="#18D0F9" />
      <stop offset="1" stop-color="#FFFFFF" />
    </linearGradient>
    <linearGradient x1="0.82136" y1="0.85236996" x2="-0.03113" y2="0.1479" id="gradient_2">
      <stop offset="0" stop-color="#05CCF9" />
      <stop offset="1" stop-color="#FFFFFF" />
    </linearGradient>
    <filter filterUnits="userSpaceOnUse" color-interpolation-filters="sRGB" id="filter_1">
      <feFlood flood-opacity="0" result="BackgroundImageFix" />
      <feColorMatrix in="SourceAlpha" type="matrix" values="0 0 0 0 0 0 0 0 0 0 0 0 0 0 0 0 0 0 127 0" />
      <feOffset dx="3" dy="16" />
      <feGaussianBlur stdDeviation="3" />
      <feColorMatrix type="matrix" values="0 0 0 0 0.39215687 0 0 0 0 0.39215687 0 0 0 0 0.39215687 0 0 0 0.49803922 0" />
      <feBlend mode="normal" in2="BackgroundImageFix" result="effect0_dropShadow" />
      <feBlend mode="normal" in="SourceGraphic" in2="effect0_dropShadow" result="shape" />
    </filter>
    <path d="M0 0L246 0L246 246L0 246L0 0Z" id="path_1" />
    <path d="M0 0L414.04 0L414.04 521L0 521L0 0Z" id="path_2" />
    <clipPath id="mask_1">
      <use xlink:href="#path_1" />
    </clipPath>
    <clipPath id="mask_2">
      <use xlink:href="#path_2" />
    </clipPath>
  </defs>
  <g id="Group">
    <g id="logo" transform="translate(205.65433 208.11261)">
      <path d="M0 0L246 0L246 246L0 246L0 0Z" id="Background" fill="none" stroke="none" />
      <g clip-path="url(#mask_1)">
        <path d="M122.791 182.962C177.216 257.155 230.478 162.254 230.399 105.184C230.308 37.711 161.918 1.43191e-08 122.747 1.43191e-08C59.8751 -0.000960925 0 51.9598 0 123.054C0 202.076 68.635 245.846 122.747 245.846C110.502 244.083 69.6939 235.339 69.1462 141.347C68.7762 77.7773 89.8832 52.3788 122.659 63.5516C123.393 63.8235 158.811 77.7956 158.811 123.437C158.811 168.886 122.791 182.962 122.791 182.962L122.791 182.962Z" transform="translate(-0.18743896 0.7141113)" id="Shape" fill="url(#gradient_1)" stroke="none" />
        <path d="M80.0163 63.6531C44.0542 51.2579 0 80.8981 0 140.265C-3.66569e-06 237.201 71.833 246 80.541 246C143.413 246 203.288 194.038 203.288 122.945C203.288 43.9231 134.653 0.152411 80.541 0.152411C95.5287 -1.92321 161.322 16.373 161.322 106.296C161.322 164.938 112.195 196.862 80.2421 183.223C79.508 182.951 44.0888 168.979 44.0888 123.337C44.0888 77.8874 80.0163 63.6531 80.0163 63.6531L80.0163 63.6531Z" transform="translate(42.710968 0.00036621094)" id="Shape" fill="url(#gradient_2)" stroke="none" />
      </g>
    </g>
    <g id="curly-brackets" transform="matrix(-0.7431448 -0.66913056 0.66913056 -0.7431448 307.69147 664.22504)">
      <path d="M0 0L414.04 0L414.04 521L0 521L0 0Z" id="Background" fill="none" stroke="none" />
      <g clip-path="url(#mask_2)">
        <g filter="url(#filter_1)">
          <path d="M28.4652 80.2202C33.6407 113.861 38.8162 121.624 38.8162 155.265C38.8162 175.967 0 194.081 0 194.081L0 219.959C0 219.959 38.8162 238.073 38.8162 258.775C38.8162 292.416 33.6407 300.179 28.4652 333.82C20.702 388.162 49.1672 414.04 75.0447 414.04C100.922 414.04 129.387 414.04 129.387 414.04L129.387 362.285C129.387 362.285 82.8079 367.46 82.8079 336.407C82.8079 313.118 87.9834 313.118 93.1589 261.363C95.7467 238.073 80.2202 219.959 64.6937 207.02C80.2202 194.081 95.7467 178.555 93.1589 155.265C85.3957 103.51 82.8079 103.51 82.8079 80.2202C82.8079 49.1672 129.387 51.755 129.387 51.755L129.387 -3.08484e-06C129.387 -3.08484e-06 103.51 -3.08484e-06 75.0447 -3.08484e-06C46.5795 -3.08484e-06 20.702 25.8775 28.4652 80.2202L28.4652 80.2202Z" transform="translate(25.87738 57.79315)" id="Shape" fill="#FAE800" stroke="none" />
        </g>
        <g filter="url(#filter_1)">
          <path d="M100.922 80.2202C95.7467 113.861 90.5712 121.624 90.5712 155.265C90.5712 175.967 129.387 194.081 129.387 194.081L129.387 219.959C129.387 219.959 90.5712 238.073 90.5712 258.775C90.5712 292.416 95.7467 300.179 100.922 333.82C108.685 388.162 80.2202 414.04 54.3427 414.04C28.4652 414.04 0 414.04 0 414.04L0 362.285C0 362.285 46.5795 367.46 46.5795 336.407C46.5795 313.118 41.404 313.118 36.2285 261.363C33.6407 238.073 49.1672 219.959 64.6937 207.02C49.1672 194.081 33.6408 178.555 36.2285 155.265C41.404 103.51 46.5795 103.51 46.5795 80.2202C46.5795 49.1672 0 51.755 0 51.755L0 -3.08484e-06C0 -3.08484e-06 25.8775 -3.08484e-06 54.3427 -3.08484e-06C82.808 -3.08484e-06 108.685 25.8775 100.922 80.2202L100.922 80.2202Z" transform="translate(258.77478 57.792786)" id="Shape" fill="#FAE800" stroke="none" />
        </g>
      </g>
    </g>
  </g>
</svg>